<?xml version="1.0" encoding="utf-8"?>
<!-- Generator: Adobe Illustrator 16.0.0, SVG Export Plug-In . SVG Version: 6.00 Build 0)  -->
<!DOCTYPE svg PUBLIC "-//W3C//DTD SVG 1.1//EN" "http://www.w3.org/Graphics/SVG/1.1/DTD/svg11.dtd">
<svg version="1.1" id="Calque_1" xmlns="http://www.w3.org/2000/svg" xmlns:xlink="http://www.w3.org/1999/xlink" x="0px" y="0px"
	 width="109px" height="61.5px" viewBox="0 0 109 61.5" enable-background="new 0 0 109 61.5" xml:space="preserve">
<g>
	<path fill="none" stroke="#FFFFFF" stroke-linecap="round" stroke-linejoin="round" stroke-miterlimit="10" d="M8,38
		c8.741,0.564,5.663-20.607-3.492-6.271c-4.291,6.719-5.904,26.342,6.929,19.551c7.505-3.972,12.982-18.844,15.841-26.108
		c3.086-7.842,4.535-15.935,6.101-24.131c0.31,13.603-3.496,27.698-5.407,41.112c-0.722,5.065-1.201,12.875,2.039,18.514"/>
	<path fill="none" stroke="#FFFFFF" stroke-linecap="round" stroke-linejoin="round" stroke-miterlimit="10" d="M18.667,26.667
		c4.991,11.57,22.628,4.285,28.696-1.987c4.087-4.225,9.695-12.246,6.534-18.723c-2.655-5.438-7.315-3.731-10.759,0.135
		c-4.854,5.449-11.394,36.871-1.135,39.953c7.483,2.248,10.429-9.663,5.299-13.809c-0.214,7.726,16.976,3.364,17.263-3.468
		c-6.276-1.368-12.524,9.42-10.575,14.964c3.358,9.548,13.12-1.385,13.39-8.412c0.314-8.193-8.247-10.017-6.707-2.807
		c1.499,7.019,9.477,0.004,11.942-3.14c-3.494,3.018-5.005,10.927-3.195,12.523c4.827,4.256,8.813-7.639,9.13-12.571
		c-1.807,3.176-3.124,12.349,1.588,13.379c9.729,2.127,13.104-25.131,13.925-30.649c-2.043,7.644-6.551,21.609-4.124,29.417
		c4.209,13.541,16.149-3.327,18.061-10.807"/>
	<path fill="none" stroke="#FFFFFF" stroke-linecap="round" stroke-linejoin="round" stroke-miterlimit="10" d="M84,23.333
		c6.074,0.149,10.79-2.03,16.667-2.667"/>
</g>
</svg>
