<?xml version="1.0" encoding="utf-8"?>
<!-- Generator: Adobe Illustrator 16.0.0, SVG Export Plug-In . SVG Version: 6.00 Build 0)  -->
<!DOCTYPE svg PUBLIC "-//W3C//DTD SVG 1.1//EN" "http://www.w3.org/Graphics/SVG/1.1/DTD/svg11.dtd">
<svg version="1.1" id="Calque_1" xmlns="http://www.w3.org/2000/svg" xmlns:xlink="http://www.w3.org/1999/xlink" x="0px" y="0px"
	 width="123.667px" height="88.333px" viewBox="0 0 123.667 88.333" enable-background="new 0 0 123.667 88.333"
	 xml:space="preserve">
<g>
	<path fill="none" stroke="#FFFFFF" stroke-linecap="round" stroke-linejoin="round" stroke-miterlimit="10" d="M29.962,54.557
		c-0.873-4.663-4.142-11.907-9.494-13.166c-5.05-1.188-10.89,4.841-8.175,10.506c2.131,4.446,8.52,2.405,11.536,5.734
		c4.298,4.746,1.415,13.721-1.565,18.457c-2.842,4.517-10.622,13.504-17.196,10.717c-7.124-3.019-3.374-16.344-1.688-22.121"/>
	<path fill="none" stroke="#FFFFFF" stroke-linecap="round" stroke-linejoin="round" stroke-miterlimit="10" d="M37.557,69.747
		c1.211-2.969-2.431-5.688-6.52-3.538c-5.674,2.98-8.745,15.373-4.687,18.99c4.058,3.617,10.634-10.73,10.428-15.941
		c-1.063,2.985-3.259,13.762,0.783,14.469c4.885,0.854,9.065-15.306,10.167-18.74c-1.271,5.717-2.154,10.827-1.848,16.717
		c6.494-1.049,14.208-20.387,13.1-27.051c-7.84-1.795-9.881,27.883-6.264,30.961c9.549,8.124,17.807-26.609,17.024-32.885
		c-12.815,2.908-11.831,48.537,5.156,25.703c1.51-2.029,9.705-16.015,2.549-16.338c-5.848-0.263-7.891,16.354-4.982,18.359
		c4.197,2.892,7.002-13.756,7.496-18.756c0.001,6.517-3.592,14.518,0.129,20.655c6.342-3.292,5.678-15.634,11.299-20.192
		c2.249,5.942,1.691,16.199-0.66,21.023c-0.548-6.855,3.293-17.498,8.745-21.641c0.302,5.129-1.37,12.436,0.872,16.979
		c7.453-4.262,5.971-21.25,8.132-28.894c-0.2,9.54-2.315,19.523-1.313,29.025c1.439,13.647,7.848,2.926,11.408-3.842"/>
	<path fill="none" stroke="#FFFFFF" stroke-linecap="round" stroke-linejoin="round" stroke-miterlimit="10" d="M45.152,60.253
		c-0.27,0.911,0.488-0.952,0.633-1.266"/>
	<path fill="none" stroke="#FFFFFF" stroke-linecap="round" stroke-linejoin="round" stroke-miterlimit="10" d="M123,50.76
		c-7.768,2.738-17.487,1.844-24.684,5.695"/>
</g>
<g>
	<path fill="none" stroke="#FFFFFF" stroke-linecap="round" stroke-linejoin="round" stroke-miterlimit="10" d="M29.356,29.356
		c9.597-7.909-0.243-33.511-8.484-9.301c-3.351,9.846-6.14,30.753,9.781,30.189c14.371-0.509,22.888-19.802,24.875-31.559
		c0.795-4.708,2.152-17.986-6.085-17.918c-7.429,0.062-6.92,15.369-7.325,20.309c-0.858,10.454,0.384,23.71-0.786,32.954
		c0.145-2.906,3.248-18.165,7.628-16.17c3.386,1.542-2.229,10.272,2.543,12.284c10.668,4.498,21.434-35.025,12.748-38.96
		c-7.711-3.494-9.901,32.805-2.818,38.43c4.648,3.694,10.799,1.329,14.335-2.405c3.438-3.631,6.868-16.467-1.819-10.43
		c-4.836,3.361-4.602,16.317,2.631,17.012c8.367,0.805,6.881-11.274,3.685-15.375c5.601,2.535,11.459-4.728,7.712-5.169
		c-4.611-0.542-5.262,10.623-4.33,13.479c5.283,16.193,20.59-3.101,23.132-10.301"/>
	<path fill="none" stroke="#FFFFFF" stroke-linecap="round" stroke-linejoin="round" stroke-miterlimit="10" d="M82,29.5
		c7.753,1.256,11.979-11.265,13.666-16.833"/>
</g>
</svg>
