<?xml version="1.0" encoding="utf-8"?>
<!-- Generator: Adobe Illustrator 16.0.0, SVG Export Plug-In . SVG Version: 6.00 Build 0)  -->
<!DOCTYPE svg PUBLIC "-//W3C//DTD SVG 1.1//EN" "http://www.w3.org/Graphics/SVG/1.1/DTD/svg11.dtd">
<svg version="1.1" id="Calque_1" xmlns="http://www.w3.org/2000/svg" xmlns:xlink="http://www.w3.org/1999/xlink" x="0px" y="0px"
	 width="116.167px" height="46.5px" viewBox="0 0 116.167 46.5" enable-background="new 0 0 116.167 46.5" xml:space="preserve">
<g>
	<path fill="none" stroke="#FFFFFF" stroke-linecap="round" stroke-linejoin="round" stroke-miterlimit="10" d="M12.453,20.219
		c-0.651,0.307-0.451,1.907,0.968,1.393c5.126-1.861,10.343-9.42,9.267-15.177C20.864-3.325,10.921,3.27,7.29,8.88
		C1.998,17.056-4.179,36.957,6.561,43.638c8.732,5.432,16.898-3.287,20.866-10.965c-3.717,5.065-3.239,15.905,5.107,11.007
		c7.636-4.48,4.729-15.068-4.433-13.245c-2.593,12.882,12.149-7.05,14.396-7.427c4.457-0.748,0.198,12.693,0.172,18.667
		c-0.347-4.09,1.061-15.433,7.912-15.952c0.229,5.263-1.231,10.767-0.48,15.889c7.697-4.34,8.134-21.343,9.934-29.147
		c0.072,4.131-3.66,22.943-0.601,25.259c2.48,1.878,6.094-4.849,7.363-6.726"/>
	<path fill="none" stroke="#FFFFFF" stroke-linecap="round" stroke-linejoin="round" stroke-miterlimit="10" d="M54,23
		c3.615-0.299,11.913-6.392,16.667-8.666"/>
	<path fill="none" stroke="#FFFFFF" stroke-linecap="round" stroke-linejoin="round" stroke-miterlimit="10" d="M76.667,23.667
		C70.434,20.596,64.021,32,67.32,37.046c4.645,7.102,7.909-8.836,8.013-13.09c0.013,4.518-2.228,9.258,1.292,12.169
		c2.564,2.121,6.125-1.5,6.678-4.5"/>
	<path fill="none" stroke="#FFFFFF" stroke-linecap="round" stroke-linejoin="round" stroke-miterlimit="10" d="M88,21.667
		C83.147,22.638,81.361,36,86.002,37.542c5.258,1.747,15.346-22.496,15.329-26.962c0,5.698-3.921,23.032-0.043,27.206
		c7.225,7.775,11.9-8.535,14.045-13.452"/>
	<path fill="none" stroke="#FFFFFF" stroke-linecap="round" stroke-linejoin="round" stroke-miterlimit="10" d="M92.667,21
		c5.476-1.359,12.667-2.45,16.667-6.666"/>
</g>
</svg>
