<?xml version="1.0" encoding="utf-8"?>
<!-- Generator: Adobe Illustrator 16.0.0, SVG Export Plug-In . SVG Version: 6.00 Build 0)  -->
<!DOCTYPE svg PUBLIC "-//W3C//DTD SVG 1.1//EN" "http://www.w3.org/Graphics/SVG/1.1/DTD/svg11.dtd">
<svg version="1.1" id="Calque_1" xmlns="http://www.w3.org/2000/svg" xmlns:xlink="http://www.w3.org/1999/xlink" x="0px" y="0px"
	 width="109.167px" height="65.5px" viewBox="0 0 109.167 65.5" enable-background="new 0 0 109.167 65.5" xml:space="preserve">
<g>
	<path fill="none" stroke="#FFFFFF" stroke-linecap="round" stroke-linejoin="round" stroke-miterlimit="10" d="M26,1
		c-2.841,11.203-4.112,21.387-9.592,31.896C15.302,35.018,3.312,57.825,1,48.5"/>
	<path fill="none" stroke="#FFFFFF" stroke-linecap="round" stroke-linejoin="round" stroke-miterlimit="10" d="M13.5,13.5
		C10.04,8.707,32.351-5.762,34.047,6.996C35.492,17.855,13.029,37.06,2.542,35.923C2.503,35.211,2.744,34.688,3,34"/>
	<path fill="none" stroke="#FFFFFF" stroke-linecap="round" stroke-linejoin="round" stroke-miterlimit="10" d="M23.5,41.5
		c-0.08,0.616-0.405,0.821-0.349,1.433c8.178,0.745,8.53-14.274,8.275-19.365c-0.284,0.026-1.078,0.023-1.351-0.014
		c-0.991,10.799,8.692,1.251,11.857-0.896c-0.751,6.382-6.54,12.206-6.367,18.766c5.073,0.922,14.425-7.971,13.87-13.346
		c-6.3-0.839-9.447,14.163-0.924,12.965c5.698-0.801,9.392-14.752,1.541-13.453c2.02,5.913,9.708-1.933,11.481-4.483
		c-0.432,11.206-1.742,23.452-6.021,33.896c-1.11,2.709-2.571,7.614-6.027,7.526c-3.801-0.096-3.766-3.896-2.88-6.857
		c2.898-9.691,16.516-13.461,22.065-21.156c2.738-3.798,4.728-9.793,4.752-14.437c-6.193-0.81-9.717,15.303-3.435,16.958
		c8.386,2.211,14.393-23.726,14.51-29.418c0.217,4.48-1.91,8.866-2.521,13.271c-0.309,2.231-2.209,13.861-0.402,15.556
		c4.432,4.153,10.138-17.875,10.422-21.301c-0.849,8.493,7.586,16.958-2.422,23.351C87.518,25.664,108.831,23.159,108,8.5"/>
	<path fill="none" stroke="#FFFFFF" stroke-linecap="round" stroke-linejoin="round" stroke-miterlimit="10" d="M60,17
		c0.151-0.738,0.499-1.433,1-2"/>
	<path fill="none" stroke="#FFFFFF" stroke-linecap="round" stroke-linejoin="round" stroke-miterlimit="10" d="M76.5,17
		c8.52-2.169,15.619-8.344,24-11"/>
</g>
</svg>
