<?xml version="1.0" encoding="utf-8"?>
<!-- Generator: Adobe Illustrator 16.0.0, SVG Export Plug-In . SVG Version: 6.00 Build 0)  -->
<!DOCTYPE svg PUBLIC "-//W3C//DTD SVG 1.1//EN" "http://www.w3.org/Graphics/SVG/1.1/DTD/svg11.dtd">
<svg version="1.1" id="Calque_2" xmlns="http://www.w3.org/2000/svg" xmlns:xlink="http://www.w3.org/1999/xlink" x="0px" y="0px"
	 width="1095px" height="57px" viewBox="0 0 1095 57" enable-background="new 0 0 1095 57" xml:space="preserve">
<g>
	<g>
		<g>
			<g>
				<path fill="#F44336" d="M1046.5,1h-995C24.438,1,1,18.088,1,41.955V56h1093V41.955C1094,18.088,1073.563,1,1046.5,1z"/>
				<path fill="#FFFFFF" d="M1094,57H1c-0.552,0-1-0.448-1-1V41.955C0,18.429,22.622,0,51.5,0h995c28.103,0,48.5,17.645,48.5,41.955
					V56C1095,56.552,1094.553,57,1094,57z M2,55h1091V41.955C1093,18.804,1073.444,2,1046.5,2h-995C23.743,2,2,19.55,2,41.955V55z"
					/>
			</g>
		</g>
	</g>
	<path fill="none" stroke="#FFFFFF" stroke-width="2" stroke-linejoin="round" stroke-miterlimit="10" d="M5.366,25.774
		c0,0,40.383,0.096,43.634-0.024C52.185,25.633,62.52,9,67.411,9c7.645,0,118.536,0,125,0c2.722,0,13.494,16.804,17.589,16.75
		c6.336-0.083,880.474-0.071,880.474-0.071"/>
	<path fill="none" stroke="#FFFFFF" stroke-width="2" stroke-linejoin="round" stroke-miterlimit="10" d="M206.924,11.152
		c0,0,6.087,7.677,7.16,7.679c5.121,0.01,18.079,0.171,18.079,0.171s-6.508-7.946-7.966-7.946
		C220.632,11.056,206.924,11.152,206.924,11.152z"/>
	<g>
		
			<polyline fill="none" stroke="#FFFFFF" stroke-width="2" stroke-linecap="round" stroke-linejoin="round" stroke-miterlimit="10" points="
			18.558,34.334 12.495,40.564 18.558,47.001 		"/>
		
			<line fill="none" stroke="#FFFFFF" stroke-width="2" stroke-linecap="round" stroke-linejoin="round" stroke-miterlimit="10" x1="27" y1="41" x2="13" y2="41"/>
	</g>
	<g>
		
			<polyline fill="none" stroke="#FFFFFF" stroke-width="2" stroke-linecap="round" stroke-linejoin="round" stroke-miterlimit="10" points="
			48.94,46.979 55.003,40.748 48.94,34.312 		"/>
		
			<line fill="none" stroke="#FFFFFF" stroke-width="2" stroke-linecap="round" stroke-linejoin="round" stroke-miterlimit="10" x1="40" y1="41" x2="54" y2="41"/>
	</g>
	<g>
		<path fill="none" stroke="#FFFFFF" stroke-width="2" stroke-linecap="round" stroke-linejoin="round" stroke-miterlimit="10" d="
			M83.939,44.551c0,0-1.213,2.116-4.272,2.116c-5,0-6.666-3-6.666-6s2.001-6.334,6.167-6.334c3.503,0,4.771,3.042,4.771,3.042"/>
		
			<polyline fill="none" stroke="#FFFFFF" stroke-width="2" stroke-linecap="round" stroke-linejoin="round" stroke-miterlimit="10" points="
			80.75,38.53 85.25,38.469 85.189,33.97 		"/>
	</g>
	<g>
		
			<line fill="none" stroke="#FFFFFF" stroke-width="2" stroke-linecap="round" stroke-miterlimit="10" x1="182.5" y1="16" x2="189.5" y2="23"/>
		
			<line fill="none" stroke="#FFFFFF" stroke-width="2" stroke-linecap="round" stroke-miterlimit="10" x1="189.5" y1="16" x2="182.5" y2="23"/>
	</g>
	<g>
		
			<line fill="none" stroke="#FFFFFF" stroke-width="2" stroke-linecap="round" stroke-miterlimit="10" x1="1041.153" y1="7.653" x2="1051.563" y2="18.063"/>
		
			<line fill="none" stroke="#FFFFFF" stroke-width="2" stroke-linecap="round" stroke-miterlimit="10" x1="1051.563" y1="7.653" x2="1041.153" y2="18.063"/>
	</g>
	<g>
		
			<line fill="none" stroke="#FFFFFF" stroke-width="2" stroke-linecap="round" stroke-miterlimit="10" x1="1065" y1="35" x2="1078" y2="35"/>
		
			<line fill="none" stroke="#FFFFFF" stroke-width="2" stroke-linecap="round" stroke-miterlimit="10" x1="1065" y1="40" x2="1078" y2="40"/>
		
			<line fill="none" stroke="#FFFFFF" stroke-width="2" stroke-linecap="round" stroke-miterlimit="10" x1="1065" y1="45" x2="1078" y2="45"/>
	</g>
	<g>
		
			<rect x="1001" y="12" fill="none" stroke="#FFFFFF" stroke-width="2" stroke-linecap="round" stroke-miterlimit="10" width="7" height="7"/>
		<g>
			<polygon fill="none" stroke="#FFFFFF" stroke-width="2" stroke-linecap="round" stroke-miterlimit="10" points="1012,8 1005,8 
				1005,12 1008,12 1008,15 1012,15 			"/>
		</g>
	</g>
	
		<line fill="none" stroke="#FFFFFF" stroke-width="2" stroke-linecap="round" stroke-miterlimit="10" x1="965" y1="13" x2="974" y2="13"/>
	<path fill="none" stroke="#FFFFFF" stroke-width="2" stroke-miterlimit="10" d="M1046,41.749c0,5.109-4.142,9.251-9.251,9.251
		H109.251c-5.109,0-9.251-4.142-9.251-9.251v-0.498c0-5.109,4.142-9.251,9.251-9.251h927.498c5.109,0,9.251,4.142,9.251,9.251
		V41.749z"/>
</g>
</svg>
